# xmcd
#
# Track frame offsets:
#	150
#	13885
#	27441
#	42091
#	56445
#	70780
#	86224
#
# Disc length: 1329 seconds
#
# Revision: 1
# Processed by: cddbd v1.5.2PL0 Copyright (c) Steve Scherf et al.
# Submitted via: audiograbber 1.83.01
#
DISCID=57052f07
DTITLE=Various Artist - Jazz Collection - Blues Guitar
DYEAR=1900
DGENRE=Blues
TTITLE0=Blind Blake - Blind Arthur's Breakdown
TTITLE1=Lonnie Johnson - Playing with the strings
TTITLE2=Guitar blues - Guitar blues
TTITLE3=Leadbelly - Pigmeat
TTITLE4=Tampa Red - Boogie woogie dance
TTITLE5=Big Bill Broonzy - Guitar shuffle
TTITLE6=Blues clair - Django Reinhardt - Blues clair
EXTD=
EXTT0=
EXTT1=
EXTT2=
EXTT3=
EXTT4=
EXTT5=
EXTT6=
PLAYORDER=
